<?xml version="1.0" standalone="no"?>
<!DOCTYPE svg PUBLIC "-//W3C//DTD SVG 20010904//EN"
 "http://www.w3.org/TR/2001/REC-SVG-20010904/DTD/svg10.dtd">
<svg version="1.0" xmlns="http://www.w3.org/2000/svg"
 width="160.000000pt" height="160.000000pt" viewBox="0 0 160.000000 160.000000"
 preserveAspectRatio="xMidYMid meet">
<metadata>
Created by potrace 1.14, written by Peter Selinger 2001-2017
</metadata>
<g transform="translate(0.000000,160.000000) scale(0.100000,-0.100000)"
fill="#000000" stroke="none">
<path d="M718 1524 c-2 -1 -21 -5 -42 -8 -56 -9 -86 -17 -126 -34 -19 -9 -39
-16 -45 -18 -20 -4 -122 -68 -171 -108 -123 -99 -227 -279 -251 -436 -9 -57
-9 -181 0 -241 14 -94 80 -252 124 -297 7 -7 13 -16 13 -20 0 -11 82 -94 133
-135 79 -64 203 -120 317 -143 62 -13 269 -9 295 5 6 3 12 6 15 7 100 19 241
98 328 183 31 32 52 46 52 37 0 -21 0 -22 21 -96 28 -102 37 -120 53 -114 12
5 12 14 -5 62 -39 114 -46 193 -21 230 75 107 122 276 117 421 -4 108 -8 130
-36 215 -51 152 -151 281 -289 371 -94 62 -157 87 -275 111 -30 6 -202 13
-207 8z"/>
</g>
</svg>
